<svg width="30" height="30" viewBox="0 0 30 30" fill="none" xmlns="http://www.w3.org/2000/svg">
<path d="M29.1667 14.9999C29.1667 7.17992 22.82 0.833252 15 0.833252C7.18002 0.833252 0.833351 7.17992 0.833351 14.9999C0.833351 22.8199 7.18002 29.1666 15 29.1666C22.82 29.1666 29.1667 22.8199 29.1667 14.9999ZM14.2492 20.7091L9.99919 16.4591C9.78669 16.2466 9.68752 15.9774 9.68752 15.7083C9.68752 15.4391 9.78669 15.1699 9.99919 14.9574C10.41 14.5466 11.09 14.5466 11.5009 14.9574L13.9375 17.3941L13.9375 10.0416C13.9375 9.46075 14.4192 8.97909 15 8.97909C15.5809 8.97909 16.0625 9.46075 16.0625 10.0416L16.0625 17.3941L18.4992 14.9574C18.91 14.5466 19.59 14.5466 20.0009 14.9574C20.4117 15.3683 20.4117 16.0483 20.0009 16.4591L15.7509 20.7091C15.34 21.1199 14.66 21.1199 14.2492 20.7091Z" fill="url(#paint0_linear_1102_144)"/>
<defs>
<linearGradient id="paint0_linear_1102_144" x1="29.1667" y1="14.9999" x2="0.833353" y2="14.9999" gradientUnits="userSpaceOnUse">
<stop stop-color="#141414"/>
<stop offset="1" stop-color="#383838"/>
</linearGradient>
</defs>
</svg>
