<svg width="56" height="56" viewBox="0 0 56 56" fill="none" xmlns="http://www.w3.org/2000/svg">
<circle cx="28" cy="28" r="28" fill="#EFDBDD"/>
<path d="M34.9833 11.3333H21.0167C14.95 11.3333 11.3333 14.9499 11.3333 21.0166V34.9666C11.3333 41.0499 14.95 44.6666 21.0167 44.6666H34.9667C41.0333 44.6666 44.65 41.0499 44.65 34.9833V21.0166C44.6667 14.9499 41.05 11.3333 34.9833 11.3333ZM28 34.4666C24.4333 34.4666 21.5333 31.5666 21.5333 27.9999C21.5333 24.4333 24.4333 21.5333 28 21.5333C31.5667 21.5333 34.4667 24.4333 34.4667 27.9999C34.4667 31.5666 31.5667 34.4666 28 34.4666ZM37.8667 19.4666C37.7833 19.6666 37.6667 19.8499 37.5167 20.0166C37.35 20.1666 37.1667 20.2833 36.9667 20.3666C36.7667 20.4499 36.55 20.4999 36.3333 20.4999C35.8833 20.4999 35.4667 20.3333 35.15 20.0166C35 19.8499 34.8833 19.6666 34.8 19.4666C34.7167 19.2666 34.6667 19.0499 34.6667 18.8333C34.6667 18.6166 34.7167 18.3999 34.8 18.1999C34.8833 17.9833 35 17.8166 35.15 17.6499C35.5333 17.2666 36.1167 17.0833 36.65 17.1999C36.7667 17.2166 36.8667 17.2499 36.9667 17.2999C37.0667 17.3333 37.1667 17.3833 37.2667 17.4499C37.35 17.4999 37.4333 17.5833 37.5167 17.6499C37.6667 17.8166 37.7833 17.9833 37.8667 18.1999C37.95 18.3999 38 18.6166 38 18.8333C38 19.0499 37.95 19.2666 37.8667 19.4666Z" fill="url(#paint0_linear_79_577)"/>
<defs>
<linearGradient id="paint0_linear_79_577" x1="11.3333" y1="27.9999" x2="44.6501" y2="27.9999" gradientUnits="userSpaceOnUse">
<stop stop-color="#F43B47"/>
<stop offset="1" stop-color="#453A94"/>
</linearGradient>
</defs>
</svg>
