<svg width="56" height="56" viewBox="0 0 56 56" fill="none" xmlns="http://www.w3.org/2000/svg">
<circle cx="28" cy="28" r="28" fill="#D7F5FE"/>
<path d="M44.6667 34.9833C44.6667 41.0499 41.05 44.6666 34.9833 44.6666H33C32.0833 44.6666 31.3333 43.9166 31.3333 42.9999V33.3833C31.3333 32.9333 31.7 32.5499 32.15 32.5499L35.0833 32.4999C35.3167 32.4833 35.5167 32.3166 35.5667 32.0833L36.15 28.8999C36.2 28.5999 35.9667 28.3166 35.65 28.3166L32.1 28.3666C31.6333 28.3666 31.2667 27.9999 31.25 27.5499L31.1833 23.4666C31.1833 23.1999 31.4 22.9666 31.6833 22.9666L35.6833 22.8999C35.9666 22.8999 36.1833 22.6833 36.1833 22.3999L36.1167 18.3999C36.1167 18.1166 35.9 17.8999 35.6167 17.8999L31.1167 17.9666C28.35 18.0166 26.15 20.2833 26.2 23.0499L26.2833 27.6333C26.3 28.0999 25.9334 28.4666 25.4667 28.4833L23.4667 28.5166C23.1833 28.5166 22.9667 28.7332 22.9667 29.0166L23.0167 32.1833C23.0167 32.4666 23.2333 32.6832 23.5167 32.6832L25.5167 32.6499C25.9833 32.6499 26.35 33.0166 26.3666 33.4666L26.5166 42.9666C26.5333 43.8999 25.7833 44.6666 24.85 44.6666H21.0167C14.95 44.6666 11.3333 41.0499 11.3333 34.9666V21.0166C11.3333 14.9499 14.95 11.3333 21.0167 11.3333H34.9833C41.05 11.3333 44.6667 14.9499 44.6667 21.0166V34.9833Z" fill="url(#paint0_linear_79_570)"/>
<defs>
<linearGradient id="paint0_linear_79_570" x1="11.3333" y1="27.9999" x2="44.6667" y2="27.9999" gradientUnits="userSpaceOnUse">
<stop stop-color="#00C6FB"/>
<stop offset="1" stop-color="#005BEA"/>
</linearGradient>
</defs>
</svg>
