<svg width="56" height="56" viewBox="0 0 56 56" fill="none" xmlns="http://www.w3.org/2000/svg">
<circle cx="28" cy="28" r="28" fill="#DDFFEB"/>
<path d="M44.6333 27.0166C44.0666 17.3499 35.2833 9.89994 25.1666 11.5666C18.2 12.7166 12.6166 18.3666 11.5333 25.3332C10.9 29.3666 11.7333 33.1832 13.55 36.3332L12.0667 41.8499C11.7333 43.0999 12.8833 44.2332 14.1166 43.8832L19.55 42.3833C22.0166 43.8333 24.9 44.6666 27.9833 44.6666C37.3833 44.6666 45.1833 36.3833 44.6333 27.0166ZM36.1333 34.1999C35.9833 34.4999 35.7999 34.7833 35.5666 35.0499C35.15 35.4999 34.6999 35.8333 34.1999 36.0333C33.6999 36.2499 33.15 36.3499 32.5666 36.3499C31.7166 36.3499 30.8 36.1499 29.85 35.7333C28.8833 35.3166 27.9333 34.7666 26.9833 34.0832C26.0167 33.3832 25.1167 32.5999 24.25 31.7499C23.3833 30.8832 22.6166 29.9666 21.9166 29.0166C21.2333 28.0666 20.6833 27.1166 20.2833 26.1666C19.8833 25.2166 19.6833 24.2999 19.6833 23.4333C19.6833 22.8666 19.7833 22.3166 19.9833 21.8166C20.1833 21.2999 20.5 20.8333 20.95 20.4166C21.4834 19.8833 22.0666 19.6333 22.6833 19.6333C22.9166 19.6333 23.1499 19.6833 23.3666 19.7833C23.5833 19.8833 23.7833 20.0333 23.9333 20.2499L25.8666 22.9832C26.0166 23.1999 26.1333 23.3832 26.2 23.5666C26.2833 23.7499 26.3166 23.9166 26.3166 24.0832C26.3166 24.2832 26.25 24.4833 26.1333 24.6833C26.0167 24.8833 25.8666 25.0832 25.6666 25.2832L25.0333 25.9499C24.9333 26.0499 24.9 26.1499 24.9 26.2832C24.9 26.3499 24.9166 26.4166 24.9333 26.4832C24.9666 26.5499 24.9833 26.5999 25 26.6499C25.15 26.9332 25.4166 27.2832 25.7833 27.7166C26.1666 28.1499 26.5667 28.5999 27 29.0332C27.45 29.4832 27.8833 29.8832 28.3333 30.2666C28.7667 30.6332 29.1333 30.8833 29.4166 31.0333C29.4666 31.0499 29.5167 31.0832 29.5667 31.0999C29.6333 31.1332 29.7 31.1333 29.7833 31.1333C29.9333 31.1333 30.0334 31.0833 30.1334 30.9833L30.7666 30.3499C30.9833 30.1333 31.1834 29.9833 31.3667 29.8833C31.5667 29.7666 31.75 29.6999 31.9667 29.6999C32.1333 29.6999 32.3 29.7332 32.4833 29.8166C32.6667 29.8999 32.8666 29.9999 33.0666 30.1499L35.8333 32.1166C36.05 32.2666 36.2 32.4499 36.3 32.6499C36.3833 32.8666 36.4333 33.0666 36.4333 33.2999C36.3333 33.5832 36.2667 33.8999 36.1333 34.1999Z" fill="url(#paint0_linear_79_583)"/>
<defs>
<linearGradient id="paint0_linear_79_583" x1="11.3231" y1="27.9995" x2="44.6607" y2="27.9995" gradientUnits="userSpaceOnUse">
<stop stop-color="#43E97B"/>
<stop offset="1" stop-color="#38F9D7"/>
</linearGradient>
</defs>
</svg>
