<svg width="1201" height="1044" viewBox="0 0 1201 1044" fill="none" xmlns="http://www.w3.org/2000/svg">
<path d="M-282.026 -134.38L-282.026 1044M-96.808 -134.38L-96.808 1044M88.4098 -134.38L88.4097 1044M273.627 -134.38L273.627 1044M458.845 -134.38L458.845 1044M644.063 -134.38L644.063 1044M829.281 -134.38L829.281 1044M1014.5 -134.38L1014.5 1044M1199.72 -134.38L1199.72 1044M-282.53 1011.05H1199.21M-282.53 825.663L1199.21 825.663M-282.53 640.274L1199.21 640.274M-282.53 454.885L1199.21 454.885M-282.53 269.496L1199.21 269.496M-282.53 84.1064L1199.21 84.1065M-282.53 -101.283L1199.21 -101.283" stroke="url(#paint0_radial_79_776)" stroke-opacity="0.3"/>
<defs>
<radialGradient id="paint0_radial_79_776" cx="0" cy="0" r="1" gradientUnits="userSpaceOnUse" gradientTransform="translate(458.593 454.81) rotate(90) scale(589.19 741.123)">
<stop stop-color="white"/>
<stop offset="1" stop-color="white" stop-opacity="0"/>
</radialGradient>
</defs>
</svg>
