<svg width="81" height="81" viewBox="0 0 81 81" fill="none" xmlns="http://www.w3.org/2000/svg">
<path d="M39.3007 37.0118L39.9377 38.9722L40.0499 39.3177H40.4132H42.4745L40.8069 40.5293L40.513 40.7428L40.6252 41.0883L41.2622 43.0487L39.5946 41.8371L39.3007 41.6236L39.0068 41.8371L37.3392 43.0487L37.9762 41.0883L38.0884 40.7428L37.7945 40.5293L36.1269 39.3177H38.1882H38.5515L38.6637 38.9722L39.3007 37.0118Z" stroke="white"/>
<path d="M57.3952 46.6687C61.1081 41.7954 64.4761 41.2364 66.2055 41.5742C63.3347 43.7982 61.5307 46.2 60.5399 48.655C59.4638 51.3214 59.3611 54.016 59.8512 56.5564C60.6114 60.4968 62.7997 64.0834 65.0342 66.6962C64.8088 66.5782 64.5745 66.4524 64.3344 66.3196C62.6079 65.3642 60.6452 64.0748 59.5081 62.6842C58.4313 61.3672 57.5695 59.3172 56.972 57.55C56.676 56.6749 56.45 55.8848 56.298 55.3137C56.222 55.0283 56.1647 54.798 56.1265 54.6398C56.1074 54.5607 56.0931 54.4995 56.0836 54.4586L56.0731 54.4125L56.0706 54.4012L56.07 54.3987L56.0699 54.3982L56.0699 54.3981L55.7416 52.9153L55.1248 54.3032C55.0544 54.4616 54.8417 54.741 54.421 55.0643C54.0108 55.3794 53.4332 55.7125 52.6814 55.9933C51.3793 56.4798 49.5619 56.8067 47.2109 56.6145C51.4193 52.7365 52.3216 48.4988 51.6317 44.7186C51.0735 41.6605 49.4813 38.9353 47.8406 36.9584C49.0187 37.4949 50.3714 38.2727 51.6672 39.3139C53.7705 41.004 55.6984 43.3668 56.5136 46.4919L56.7728 47.4855L57.3952 46.6687Z" fill="white" stroke="white"/>
<path d="M69.7391 53.7983C69.7391 56.144 67.8376 58.0455 65.4919 58.0455C63.1462 58.0455 61.2446 56.144 61.2446 53.7983C61.2446 51.4526 63.1462 49.551 65.4919 49.551C67.8376 49.551 69.7391 51.4526 69.7391 53.7983Z" fill="white"/>
<path d="M43.7354 58.2568C49.8452 58.7099 52.1511 61.2275 52.8115 62.8612C49.3815 61.6686 46.3844 61.467 43.7864 61.976C40.9646 62.5289 38.6503 63.9128 36.7887 65.7095C33.9011 68.4963 32.0892 72.287 31.1185 75.5851C31.0944 75.3318 31.0719 75.0669 31.0523 74.7931C30.9111 72.825 30.9209 70.4767 31.466 68.7651C31.9822 67.1441 33.2302 65.3034 34.3852 63.8386C34.9571 63.1132 35.496 62.4927 35.8917 62.0537C36.0894 61.8343 36.2511 61.6607 36.3629 61.5423C36.4188 61.4831 36.4622 61.4378 36.4914 61.4075L36.5243 61.3735L36.5323 61.3653L36.5342 61.3634L36.5345 61.363L36.5346 61.363L37.5982 60.2789L36.0985 60.5192C35.9273 60.5466 35.5771 60.5208 35.0767 60.3446C34.5889 60.1727 33.9945 59.8703 33.349 59.3935C32.231 58.5677 30.9655 57.2229 29.8439 55.1477C35.39 56.559 39.4337 55.0033 42.2254 52.3627C44.4838 50.2266 45.899 47.4055 46.6608 44.9519C46.8538 46.2319 46.94 47.7899 46.7743 49.4439C46.5053 52.1287 45.5769 55.0335 43.4026 57.4216L42.7113 58.1809L43.7354 58.2568Z" fill="white" stroke="white"/>
<path d="M44.4943 72.4915C42.5285 73.7713 39.8974 73.215 38.6177 71.2492C37.338 69.2833 37.8942 66.6523 39.8601 65.3725C41.8259 64.0928 44.457 64.6491 45.7367 66.6149C47.0164 68.5808 46.4602 71.2118 44.4943 72.4915Z" fill="white"/>
<path d="M22.9757 31.9462C19.1042 36.6945 15.7197 37.1423 14.0023 36.7478C16.9448 34.6195 18.827 32.2784 19.8981 29.8574C21.0614 27.2278 21.2528 24.5381 20.8466 21.9829C20.2166 18.0197 18.1476 14.3629 16.0004 11.6779C16.2218 11.8033 16.4519 11.9367 16.6875 12.0774C18.3816 13.0891 20.3007 14.4424 21.3913 15.8698C22.4242 17.2215 23.218 19.2988 23.757 21.0847C24.024 21.9691 24.2239 22.7662 24.357 23.342C24.4235 23.6298 24.4732 23.8617 24.5062 24.0212C24.5227 24.1009 24.535 24.1624 24.5431 24.2037L24.5521 24.2501L24.5542 24.2614L24.5547 24.264L24.5548 24.2645L24.5548 24.2646L24.8341 25.7574L25.4963 24.3906C25.5719 24.2346 25.7937 23.9623 26.2248 23.6531C26.6451 23.3517 27.2334 23.0378 27.994 22.7818C29.3114 22.3385 31.1386 22.0716 33.482 22.3412C29.1481 26.0785 28.1068 30.2841 28.6718 34.0851C29.129 37.1599 30.6305 39.936 32.2052 41.9659C31.0454 41.3909 29.7191 40.569 28.4583 39.4856C26.4118 37.7272 24.5628 35.3021 23.8509 32.1519L23.6246 31.1503L22.9757 31.9462Z" fill="white" stroke="white"/>
<path d="M10.8735 24.4138C10.9508 22.0694 12.9139 20.2315 15.2583 20.3087C17.6028 20.386 19.4406 22.3491 19.3634 24.6935C19.2861 27.038 17.323 28.8758 14.9786 28.7986C12.6342 28.7213 10.7963 26.7582 10.8735 24.4138Z" fill="white"/>
<path d="M25.3449 50.4651C27.7861 56.0843 26.6302 59.2967 25.4913 60.6413C24.9513 57.0502 23.7356 54.3033 22.0764 52.2404C20.2743 49.9997 17.9726 48.5949 15.5161 47.7828C11.7059 46.5231 7.50747 46.6826 4.13637 47.3576C4.3494 47.2184 4.57352 47.0753 4.80668 46.9306C6.48322 45.89 8.56646 44.8063 10.3352 44.4925C12.0102 44.1954 14.2202 44.4439 16.0542 44.7848C16.9624 44.9537 17.7623 45.142 18.335 45.2881C18.6212 45.3611 18.8501 45.4234 19.0069 45.4673C19.0853 45.4893 19.1456 45.5066 19.186 45.5183L19.2314 45.5316L19.2424 45.5349L19.2449 45.5357L19.2454 45.5358L19.2455 45.5358L20.6999 45.9731L19.7896 44.7573C19.6857 44.6185 19.5456 44.2965 19.4688 43.7716C19.394 43.2598 19.3852 42.593 19.507 41.7998C19.7179 40.4259 20.3196 38.6801 21.6348 36.7219C22.9655 42.2878 26.2238 45.1436 29.86 46.3865C32.8015 47.3919 35.9571 47.3323 38.4834 46.8652C37.4401 47.6316 36.1011 48.4326 34.5598 49.0554C32.0581 50.0662 29.0549 50.5957 25.9294 49.782L24.9357 49.5233L25.3449 50.4651Z" fill="white" stroke="white"/>
<path d="M13.097 57.7593C11.0497 56.6144 10.3181 54.0266 11.463 51.9793C12.6078 49.932 15.1956 49.2004 17.2429 50.3452C19.2903 51.4901 20.0219 54.0779 18.877 56.1252C17.7321 58.1725 15.1443 58.9041 13.097 57.7593Z" fill="white"/>
<path d="M37.2344 21.5108C31.1575 20.7319 28.9894 18.0947 28.4172 16.4281C31.7787 17.8023 34.7607 18.1637 37.3822 17.7942C40.2295 17.3929 42.6144 16.1346 44.5694 14.4399C47.6018 11.8114 49.6137 8.12296 50.7592 4.88141C50.7697 5.13565 50.778 5.40145 50.783 5.67582C50.8188 7.64873 50.6835 9.99307 50.0478 11.6732C49.4457 13.2642 48.1011 15.0356 46.8695 16.4366C46.2596 17.1305 45.6884 17.7213 45.2697 18.1385C45.0606 18.3469 44.8899 18.5117 44.7719 18.6239C44.7129 18.68 44.6672 18.723 44.6364 18.7517L44.6017 18.7839L44.5933 18.7917L44.5913 18.7934L44.591 18.7938L44.5909 18.7938L43.4709 19.8195L44.9812 19.6598C45.1536 19.6415 45.502 19.686 45.9923 19.8887C46.4702 20.0864 47.0476 20.4201 47.6667 20.9307C48.739 21.8151 49.9308 23.2256 50.9399 25.3577C45.4772 23.6521 41.3561 24.9896 38.4273 27.4772C36.058 29.4896 34.494 32.231 33.6023 34.6404C33.4779 33.3519 33.4751 31.7916 33.7289 30.1488C34.141 27.4822 35.2233 24.6312 37.522 22.3626L38.2529 21.6413L37.2344 21.5108Z" fill="white" stroke="white"/>
<path d="M37.237 7.25577C39.2684 6.08293 41.866 6.77895 43.0389 8.81037C44.2117 10.8418 43.5157 13.4394 41.4843 14.6122C39.4528 15.7851 36.8553 15.089 35.6824 13.0576C34.5096 11.0262 35.2056 8.42862 37.237 7.25577Z" fill="white"/>
<path d="M55.152 28.1846C52.7881 22.5324 53.9879 19.3362 55.1452 18.0074C55.6358 21.6056 56.8138 24.3688 58.4446 26.4543C60.2157 28.7195 62.4979 30.1557 64.9431 31.0015C68.7356 32.3133 72.9359 32.2115 76.3159 31.5828C76.101 31.719 75.8749 31.859 75.6398 32.0005C73.9491 33.018 71.8512 34.073 70.0783 34.3625C68.3994 34.6366 66.1931 34.3579 64.3639 33.9918C63.4581 33.8105 62.6608 33.6112 62.0902 33.4573C61.8051 33.3804 61.577 33.3149 61.4209 33.2688C61.3428 33.2458 61.2827 33.2277 61.2425 33.2154L61.1973 33.2015L61.1863 33.198L61.1838 33.1972L61.1833 33.1971L61.1832 33.1971L59.7349 32.7399L60.6285 33.968C60.7305 34.1082 60.8661 34.4322 60.9357 34.9581C61.0035 35.4708 61.0032 36.1377 60.8705 36.9292C60.6408 38.3 60.0152 40.0374 58.6732 41.9774C57.419 36.3937 54.2002 33.4935 50.5814 32.2009C47.654 31.1552 44.4978 31.1715 41.9654 31.6039C43.0191 30.8519 44.3689 30.0694 45.9186 29.4678C48.4339 28.4913 51.4441 28.0031 54.5581 28.8596L55.5482 29.132L55.152 28.1846Z" fill="white" stroke="white"/>
<path d="M67.4986 21.0592C69.53 22.232 70.226 24.8296 69.0532 26.861C67.8803 28.8924 65.2828 29.5885 63.2513 28.4156C61.2199 27.2428 60.5239 24.6452 61.6967 22.6138C62.8696 20.5823 65.4672 19.8863 67.4986 21.0592Z" fill="white"/>
</svg>
