<svg width="14" height="17" viewBox="0 0 14 17" fill="none" xmlns="http://www.w3.org/2000/svg">
<path d="M13.5041 5.84086C12.7166 2.37586 9.69413 0.815865 7.03913 0.815865C7.03913 0.815865 7.03913 0.815865 7.03163 0.815865C4.38413 0.815865 1.35413 2.36836 0.566634 5.83336C-0.310866 9.70336 2.05913 12.9809 4.20413 15.0434C4.99913 15.8084 6.01913 16.1909 7.03913 16.1909C8.05913 16.1909 9.07913 15.8084 9.86663 15.0434C12.0116 12.9809 14.3816 9.71086 13.5041 5.84086ZM7.03913 9.59836C5.73413 9.59836 4.67663 8.54086 4.67663 7.23586C4.67663 5.93086 5.73413 4.87336 7.03913 4.87336C8.34413 4.87336 9.40163 5.93086 9.40163 7.23586C9.40163 8.54086 8.34413 9.59836 7.03913 9.59836Z" fill="white"/>
</svg>
