<svg width="218" height="345" viewBox="0 0 218 345" fill="none" xmlns="http://www.w3.org/2000/svg">
<path d="M0 73.2108C0 52.4757 9.40205 35.0901 28.2061 21.0541C47.0102 7.01803 73.7822 0 108.522 0C143.58 0 170.512 6.69903 189.316 20.0971C208.439 33.4951 218 53.2732 218 79.4314C218 96.6574 213.697 111.969 205.092 125.368C196.806 138.447 185.173 151.845 170.193 165.562L98.0044 229.681V257.434H86.0526V156.949C86.0526 151.526 87.8056 147.06 91.3114 143.551L120.952 113.405C130.194 104.154 136.569 95.5409 140.075 87.5659C143.58 79.2718 145.333 68.5853 145.333 55.5062C145.333 24.5631 130.991 9.09154 102.307 9.09154C88.6023 9.09154 78.5629 12.7601 72.1886 20.0971C65.8143 27.4341 62.6272 34.4522 62.6272 41.1512C62.6272 47.8502 63.5833 53.7517 65.4956 58.8558H80.7939C83.3436 65.5548 84.6184 73.6893 84.6184 83.2594C84.6184 92.5104 80.6345 100.645 72.6667 107.663C64.6988 114.362 54.1813 117.712 41.114 117.712C28.0468 117.712 17.848 113.564 10.5175 105.27C3.50585 96.6574 0 85.9709 0 73.2108ZM90.8333 345C79.0409 345 70.117 341.65 64.0614 334.951C58.3246 327.933 55.4561 319.32 55.4561 309.112C55.4561 298.585 58.6433 289.972 65.0175 283.273C71.3918 276.255 80.1564 272.746 91.3114 272.746C102.466 272.746 111.39 275.777 118.083 281.838C124.776 287.58 128.123 296.193 128.123 307.677C128.123 319.161 124.936 328.252 118.561 334.951C112.187 341.65 102.944 345 90.8333 345Z" fill="#0C111F" fill-opacity="0.1"/>
</svg>
